<svg width="32" height="32" viewBox="0 0 32 32" fill="none" xmlns="http://www.w3.org/2000/svg">
<circle cx="16.0468" cy="15.953" r="15.453" stroke="#F8F9FA"/>
<g clip-path="url(#clip0_3_1307)">
<path d="M9.953 12.7577C10.0355 12.1827 10.5075 11.7511 11.0869 11.7097C12.3231 11.6215 14.4751 11.4862 16.0472 11.4862C17.6193 11.4862 19.7714 11.6215 21.0076 11.7097C21.587 11.7511 22.0589 12.1827 22.1415 12.7577C22.2683 13.6413 22.4284 14.9548 22.4284 15.9531C22.4284 16.9515 22.2683 18.265 22.1415 19.1486C22.0589 19.7235 21.587 20.1552 21.0075 20.1965C19.7713 20.2847 17.6193 20.4199 16.0472 20.4199C14.4752 20.4199 12.3232 20.2847 11.0869 20.1965C10.5075 20.1552 10.0355 19.7235 9.953 19.1486C9.82617 18.265 9.66602 16.9515 9.66602 15.9531C9.66602 14.9548 9.82618 13.6413 9.953 12.7577Z" stroke="#F8F9FA" stroke-width="1.5" stroke-linecap="round" stroke-linejoin="round"/>
<path d="M18.5997 15.953L14.771 18.1636V13.7425L18.5997 15.953Z" stroke="#F8F9FA" stroke-width="1.5" stroke-linecap="round" stroke-linejoin="round"/>
<path d="M14.771 17.8674V13.7196L18.5997 15.9531L14.771 17.8674Z" stroke="#F8F9FA"/>
</g>
<defs>
<clipPath id="clip0_3_1307">
<rect width="15.3149" height="15.3149" fill="white" transform="translate(8.38965 8.29559)"/>
</clipPath>
</defs>
</svg>
