<svg width="33" height="32" viewBox="0 0 33 32" fill="none" xmlns="http://www.w3.org/2000/svg">
<circle cx="16.4999" cy="15.953" r="15.453" stroke="#F8F9FA"/>
<path d="M14.1316 21.6961C18.9456 21.6961 21.5798 17.5193 21.5798 13.9032C21.5798 13.7857 21.5798 13.6682 21.5747 13.5507C22.0852 13.1608 22.5293 12.6801 22.8816 12.1353C22.4017 12.3543 21.8963 12.5038 21.3756 12.5679C21.9218 12.2261 22.3302 11.6866 22.5242 11.051C22.0086 11.3715 21.4471 11.5958 20.86 11.7133C19.8696 10.6077 18.2105 10.5543 17.1538 11.5958C16.4748 12.2635 16.1838 13.2623 16.3983 14.213C14.3001 14.1009 12.3347 13.0593 11.0074 11.3501C10.3131 12.6 10.6654 14.2023 11.8191 15.0035C11.4005 14.9929 10.9972 14.8753 10.6296 14.6617C10.6296 14.6724 10.6296 14.6831 10.6296 14.6937C10.6296 15.997 11.5077 17.1186 12.7329 17.3804C12.3449 17.4926 11.9416 17.5086 11.5485 17.4285C11.8906 18.5448 12.8758 19.3086 13.9938 19.33C13.0647 20.0938 11.9212 20.505 10.7419 20.505C10.5326 20.505 10.3233 20.489 10.1191 20.4676C11.3188 21.2742 12.7074 21.6961 14.1316 21.6961Z" stroke="#F8F9FA" stroke-width="1.5" stroke-linecap="round" stroke-linejoin="round"/>
</svg>
