<svg width="15" height="16" viewBox="0 0 15 16" fill="none" xmlns="http://www.w3.org/2000/svg">
<g clip-path="url(#clip0_4649_2548)">
<path d="M13.9432 4.51767C13.9364 4.42671 13.898 4.34074 13.8342 4.274L10.5538 0.675169C10.5154 0.633656 10.4684 0.60047 10.416 0.577757C10.3636 0.555044 10.3068 0.543308 10.2495 0.543308C10.1921 0.543308 10.1354 0.555044 10.083 0.577757C10.0306 0.60047 9.9836 0.633656 9.94515 0.675169L6.66474 4.274C6.62829 4.31293 6.60008 4.3585 6.58173 4.40808C6.56339 4.45767 6.55527 4.51031 6.55783 4.56296C6.5604 4.61562 6.57361 4.66726 6.5967 4.71493C6.61979 4.7626 6.65231 4.80535 6.69238 4.84072C6.73246 4.8761 6.77931 4.90341 6.83024 4.92109C6.88116 4.93877 6.93517 4.94646 6.98916 4.94373C7.04315 4.941 7.09605 4.9279 7.14483 4.90517C7.19361 4.88245 7.2373 4.85056 7.27341 4.81133L9.83623 1.99349L9.83623 12.6088C9.36054 12.7751 9.01613 13.2218 9.01613 13.7397C9.01613 14.3975 9.57174 14.9393 10.2463 14.9393C10.9208 14.9393 11.4764 14.3975 11.4764 13.7397C11.4764 13.2218 11.132 12.7751 10.6563 12.6088L10.6563 1.99349L13.2256 4.81133C13.2822 4.87453 13.3579 4.91873 13.4418 4.93766C13.5257 4.95659 13.6135 4.94929 13.6929 4.9168C13.7723 4.88431 13.8392 4.82828 13.8841 4.75664C13.929 4.685 13.9497 4.60139 13.9432 4.51767ZM10.6563 13.7397C10.6563 13.9653 10.4776 14.1395 10.2463 14.1395C10.015 14.1395 9.83623 13.9653 9.83623 13.7397C9.83623 13.5141 10.015 13.3398 10.2463 13.3398C10.4776 13.3398 10.6563 13.5141 10.6563 13.7397ZM7.79238 10.9156C7.78823 10.8361 7.75988 10.7597 7.71094 10.6961C7.66201 10.6324 7.59472 10.5844 7.51768 10.5583C7.44064 10.5321 7.35734 10.5289 7.27845 10.5492C7.19956 10.5694 7.12865 10.6122 7.07479 10.6719L4.50556 13.4898L4.50556 2.87446C4.98125 2.70816 5.32567 2.26146 5.32567 1.74357C5.32567 1.08578 4.77005 0.543962 4.09551 0.543962C3.42098 0.543962 2.86536 1.08578 2.86536 1.74357C2.86536 2.26146 3.20977 2.70816 3.68546 2.87446L3.68546 13.4898L1.12264 10.6719C1.08653 10.6327 1.04284 10.6008 0.994057 10.5781C0.945277 10.5554 0.892375 10.5423 0.838388 10.5395C0.784402 10.5368 0.730395 10.5445 0.679466 10.5622C0.628537 10.5798 0.581689 10.6071 0.541613 10.6425C0.501536 10.6779 0.469019 10.7207 0.44593 10.7683C0.422839 10.816 0.409632 10.8676 0.407063 10.9203C0.404494 10.9729 0.412617 11.0256 0.430963 11.0752C0.449308 11.1248 0.477517 11.1703 0.513969 11.2093L3.79438 14.8081C3.83283 14.8496 3.87978 14.8828 3.9322 14.9055C3.98463 14.9282 4.04135 14.9399 4.09872 14.9399C4.15608 14.9399 4.2128 14.9282 4.26523 14.9055C4.31765 14.8828 4.3646 14.8496 4.40305 14.8081L7.68346 11.2093C7.72089 11.1699 7.74982 11.1237 7.76853 11.0732C7.78724 11.0228 7.79535 10.9692 7.79238 10.9156ZM4.50556 1.74357C4.50556 1.96915 4.32682 2.14344 4.09551 2.14344C3.86418 2.14344 3.68546 1.96915 3.68546 1.74357C3.68546 1.51799 3.86418 1.3437 4.09551 1.3437C4.32682 1.3437 4.50556 1.51799 4.50556 1.74357Z" fill="black"/>
</g>
<defs>
<clipPath id="clip0_4649_2548">
<rect width="14.5953" height="13.7367" fill="white" transform="matrix(0 1 -1 0 14.0391 0.443993)"/>
</clipPath>
</defs>
</svg>
